<svg xmlns="http://www.w3.org/2000/svg" viewBox="0 0 64 64" role="img" aria-label="Bella">
  <defs>
    <linearGradient id="bg" x1="0" y1="0" x2="1" y2="1">
      <stop offset="0" stop-color="#171522"/>
      <stop offset=".55" stop-color="#2a1c35"/>
      <stop offset="1" stop-color="#10242b"/>
    </linearGradient>
    <linearGradient id="skin" x1="0" y1="0" x2="1" y2="1">
      <stop offset="0" stop-color="#f5c2d5"/>
      <stop offset="1" stop-color="#d98fab"/>
    </linearGradient>
  </defs>
  <rect width="64" height="64" rx="18" fill="url(#bg)"/>
  <circle cx="32" cy="30" r="20" fill="#17131d"/>
  <path d="M14 61c2-13 11-18 18-18s16 5 18 18" fill="#262037"/>
  <ellipse cx="32" cy="31" rx="13" ry="16" fill="url(#skin)"/>
  <path d="M18 27c1-12 8-18 15-18 7 0 14 5 16 17-6-6-10-8-16-8-5 0-10 2-15 9Z" fill="#211725"/>
  <path d="M18 27c4-8 9-11 15-11 2 0 4 .3 6 1-4 1-8 4-11 8-4 0-7 1-10 2Z" fill="#2b1d31"/>
  <ellipse cx="27" cy="31" rx="2.5" ry="2.2" fill="#4b382f"/>
  <ellipse cx="37" cy="31" rx="2.5" ry="2.2" fill="#4b382f"/>
  <circle cx="26.3" cy="30.3" r=".7" fill="#fff" opacity=".9"/>
  <circle cx="36.3" cy="30.3" r=".7" fill="#fff" opacity=".9"/>
  <path d="M27 39c3 2 7 2 10 0" fill="none" stroke="#7d3d5a" stroke-width="1.6" stroke-linecap="round"/>
  <circle cx="23" cy="36" r="2" fill="#e25586" opacity=".18"/>
  <circle cx="41" cy="36" r="2" fill="#e25586" opacity=".18"/>
  <g transform="translate(43 45)">
    <rect width="14" height="9" rx="4.5" fill="#fff" stroke="#fff" stroke-opacity=".65" stroke-width=".8"/>
    <rect width="14" height="3" y="0" fill="#128654"/>
    <rect width="14" height="3" y="3" fill="#f7f7f7"/>
    <rect width="14" height="3" y="6" fill="#cf3d45"/>
    <path d="M0 0 5 2.2v4.6L0 9Z" fill="#171717"/>
  </g>
</svg>
